<?xml version="1.0" encoding="utf-8"?>
<!-- Generator: Adobe Illustrator 18.1.1, SVG Export Plug-In . SVG Version: 6.00 Build 0)  -->
<svg version="1.1" id="Layer_1" xmlns="http://www.w3.org/2000/svg" xmlns:xlink="http://www.w3.org/1999/xlink" x="0px" y="0px"
	 viewBox="0 0 72 72" enable-background="new 0 0 72 72" preserveAspectRatio='xMidYMid' xml:space="preserve">
<circle fill="#00467F" cx="35.9" cy="35.9" r="35.6"/>
<g>
	<path fill="#FEFEFE" d="M55.8,38c-0.1,5-1.8,9.3-5.5,12.7c-2.3,2.1-4.9,3.4-7.9,4.3c-1.5,0.5-3.1,0.8-4.7,0.9c-0.2,0-0.3,0-0.4-0.2
		c-0.1-0.2-0.2-0.4-0.3-0.6c-0.1-0.2-0.1-0.3,0.2-0.4c1.6-0.5,3-1.3,4.3-2.3c2.4-2,3.6-4.5,3.8-7.6c0.3-3.5-1-6.3-3.4-8.8
		c-0.9-0.9-1.9-1.8-2.8-2.8c-0.8-0.8-1.5-1.6-2-2.5c-1.6-3-0.4-6.3,2.8-7.5c2.5-0.9,5-0.6,7.4,0.5c2.6,1.2,4.4,3.2,5.9,5.5
		c1.4,2.1,2.2,4.3,2.5,6.8C55.8,36.7,55.9,37.3,55.8,38z"/>
	<path fill="#FEFEFE" d="M16,34.4c0.1-4.1,1.5-7.7,4.1-10.8c2.8-3.2,6.4-5,10.5-6c1.1-0.3,2.3-0.5,3.4-0.6c0.2,0,0.4,0,0.4,0.3
		c0.1,0.3,0.4,0.6,0.3,0.8c-0.1,0.3-0.5,0.2-0.8,0.3c-2.7,1-4.9,2.6-6.3,5.1c-1.1,1.9-1.5,4.1-1.3,6.3c0.2,2.9,1.5,5.2,3.4,7.2
		c1.2,1.2,2.4,2.3,3.6,3.5c0.9,1,1.6,2,1.9,3.4c0.5,2.4-0.7,4.6-2.9,5.6c-2.2,1-4.5,0.9-6.8,0.1c-2.3-0.8-4.2-2.3-5.7-4.2
		c-1.9-2.3-3.2-4.9-3.6-7.8C16,36.5,16,35.4,16,34.4z"/>
</g>
</svg>
