<?xml version="1.0" encoding="utf-8"?>
<!-- Generator: Adobe Illustrator 18.1.1, SVG Export Plug-In . SVG Version: 6.00 Build 0)  -->
<svg version="1.1" id="Layer_1" xmlns="http://www.w3.org/2000/svg" xmlns:xlink="http://www.w3.org/1999/xlink" x="0px" y="0px"
	 viewBox="0 0 72 72" enable-background="new 0 0 72 72" preserveAspectRatio='xMidYMid' xml:space="preserve">
<circle fill="#00467F" cx="35.9" cy="35.9" r="35.6"/>
<g>
	<path fill="#FFFFFF" d="M18.6,31.9c4.4,3.1,8.5,6,12.7,8.9c3.5,2.5,5.8,2.5,9.3,0c4.2-2.9,8.3-5.8,12.6-8.8c0,0.3,0.1,0.6,0.1,0.9
		c0,4.6,0,9.2,0,13.8c0,2.3-1.2,3.5-3.5,3.5c-9.3,0-18.5,0-27.8,0c-2.1,0-3.4-1.2-3.4-3.1C18.5,42.1,18.6,37.1,18.6,31.9z"/>
	<path fill="#FFFFFF" d="M35.9,22.9c4.6,0,9.2,0,13.7,0c3,0,4.5,2.2,3.2,4.9c-0.6,1.2-1.5,2.4-2.6,3.2c-3.9,2.9-8,5.6-12,8.4
		c-1.6,1.1-3.1,1.1-4.7,0c-4-2.8-8.1-5.6-12.1-8.5c-1.1-0.8-2-2-2.6-3.2c-1.2-2.4,0.4-4.8,3.1-4.8C26.7,22.9,31.3,22.9,35.9,22.9z"
		/>
</g>
</svg>
