<?xml version="1.0" encoding="utf-8"?>
<!-- Generator: Adobe Illustrator 19.2.1, SVG Export Plug-In . SVG Version: 6.00 Build 0)  -->
<svg version="1.1" id="Layer_1" xmlns="http://www.w3.org/2000/svg" xmlns:xlink="http://www.w3.org/1999/xlink" x="0px" y="0px"
	 viewBox="0 0 297.1 297" style="enable-background:new 0 0 297.1 297;" xml:space="preserve">
<style type="text/css">
	.st0{display:none;fill:#00467F;}
	.st1{fill:#00467F;}
</style>
<path class="st0" d="M35.6,112.8C16,112.8,0,128.8,0,148.4C0,168.1,15.9,184,35.6,184s35.6-15.9,35.6-35.6
	C71.2,128.8,55.3,112.8,35.6,112.8z M52.7,142.6c0,0.3,0,0.6,0,1c0,2.1-0.3,4.3-0.9,6.4c-0.6,2.1-1.6,4.2-2.8,6.1
	c-1.2,1.9-2.8,3.7-4.6,5.2s-3.9,2.7-6.4,3.6c-2.5,0.9-5.1,1.3-8,1.3c-4.4,0-8.5-1.2-12.2-3.6c0.7,0.1,1.3,0.1,1.9,0.1
	c3.7,0,7-1.1,9.9-3.4c-1.7,0-3.3-0.6-4.6-1.6s-2.3-2.2-2.8-3.8c0.5,0.1,1,0.1,1.5,0.1c0.7,0,1.4-0.1,2.1-0.3
	c-1.8-0.4-3.2-1.3-4.4-2.7c-1.2-1.5-1.7-3.2-1.7-5.1v-0.1c1,0.6,2.2,1,3.4,1c-1.1-0.7-2-1.7-2.7-2.8c-0.6-1.2-1-2.4-1-3.8
	c0-1.4,0.3-2.8,1.1-4c2,2.5,4.4,4.4,7.3,5.9c2.8,1.5,5.9,2.3,9.2,2.4c-0.1-0.6-0.2-1.2-0.2-1.8c0-2.2,0.8-4.1,2.3-5.6
	c1.6-1.6,3.4-2.3,5.6-2.3c2.3,0,4.2,0.8,5.8,2.5c1.8-0.4,3.5-1,5.1-1.9c-0.6,1.9-1.8,3.4-3.5,4.4c1.6-0.2,3.1-0.6,4.6-1.3l0,0
	C55.6,140.1,54.3,141.5,52.7,142.6z"/>
<path class="st1" d="M148.6,0C66.6,0,0.1,66.5,0.1,148.5S66.6,297,148.6,297s148.5-66.5,148.5-148.5S230.6,0,148.6,0z M112.2,214.2
	H84.9v-87.8h27.3V214.2z M98.6,114.4c-8.7,0-15.8-7.1-15.8-15.8s7.1-15.8,15.8-15.8s15.8,7.1,15.8,15.8S107.3,114.4,98.6,114.4z
	 M214.5,214.2h-27.3v-42.7c0-10.2-0.2-23.3-14.2-23.3c-14.2,0-16.4,11.1-16.4,22.6v43.5h-27.3v-87.8h26.2v12h0.4
	c3.6-6.9,12.5-14.2,25.8-14.2c27.6,0,32.7,18.2,32.7,41.8v48.1H214.5z"/>
</svg>
