<?xml version="1.0" encoding="UTF-8" standalone="no"?>
<!-- Generator: Adobe Illustrator 27.9.0, SVG Export Plug-In . SVG Version: 6.00 Build 0)  -->

<svg
   version="1.1"
   id="Layer_1"
   x="0px"
   y="0px"
   viewBox="0 0 24 24"
   enable-background="new 0 0 24 24"
   preserveAspectRatio="xMidYMid"
   xml:space="preserve"
   sodipodi:docname="x.inline.svg"
   inkscape:version="1.3 (0e150ed, 2023-07-21)"
   xmlns:inkscape="http://www.inkscape.org/namespaces/inkscape"
   xmlns:sodipodi="http://sodipodi.sourceforge.net/DTD/sodipodi-0.dtd"
   xmlns="http://www.w3.org/2000/svg"
   xmlns:svg="http://www.w3.org/2000/svg"><defs
   id="defs1" /><sodipodi:namedview
   id="namedview1"
   pagecolor="#ffffff"
   bordercolor="#000000"
   borderopacity="0.25"
   inkscape:showpageshadow="2"
   inkscape:pageopacity="0.0"
   inkscape:pagecheckerboard="0"
   inkscape:deskcolor="#d1d1d1"
   inkscape:zoom="9.8333333"
   inkscape:cx="11.949153"
   inkscape:cy="12"
   inkscape:window-width="1312"
   inkscape:window-height="449"
   inkscape:window-x="576"
   inkscape:window-y="708"
   inkscape:window-maximized="0"
   inkscape:current-layer="Layer_1" />&#10;<style
   type="text/css"
   id="style1">&#10;	.stx0{fill-rule:evenodd;clip-rule:evenodd;fill:#00467F;}&#10;</style>&#10;<path
   class="stx0"
   d="M 12,24 C 18.6,24 24,18.6 24,12 24,5.4000001 18.6,0 12,0 5.4,0 0,5.4000001 0,12 0,18.6 5.4,24 12,24 Z M 18.24,5.2800001 13.56,10.8 18.72,18.24 H 15 L 11.52,13.2 7.2,18.24 H 6.12 L 11.04,12.48 6.12,5.2800001 h 3.72 l 3.24,4.6799997 4.08,-4.6799997 z M 11.52,11.76 12,12.48 l 3.36,4.8 h 1.68 l -4.2,-6 L 12.36,10.56 9.24,6.1200001 H 7.56 Z"
   id="path1"
   style="stroke-width:1.20001" />&#10;</svg>
